<svg width="25" height="20" fill="none" xmlns="http://www.w3.org/2000/svg"><path fill-rule="evenodd" clip-rule="evenodd" d="M0 1c0-.552.47-1 1.05-1h2.598c1.416 0 2.657.902 3.034 2.203L7.202 4h14.649c2.1 0 3.612 1.925 3.02 3.847L23.41 12.58c-.34 1.103-1.313 1.924-2.503 2.113L11.48 16.19c-1.59.253-3.123-.68-3.552-2.161L4.66 2.734A1.043 1.043 0 003.648 2H1.049C.47 2 0 1.553 0 1zm7.781 5l2.17 7.497c.143.494.654.805 1.184.72l9.427-1.497c.397-.063.721-.337.834-.704l1.461-4.734C23.055 6.642 22.551 6 21.851 6H7.78zm1.661 13c0-.552.47-1 1.05-1h1.049c.579 0 1.049.448 1.049 1 0 .553-.47 1-1.05 1h-1.049c-.579 0-1.049-.447-1.049-1zm8.393 0c0-.552.47-1 1.05-1h1.049c.58 0 1.049.448 1.049 1 0 .553-.47 1-1.05 1h-1.048c-.58 0-1.05-.447-1.05-1z" fill="#474442"/></svg>