<svg width="29" height="29" fill="none" xmlns="http://www.w3.org/2000/svg"><path fill-rule="evenodd" clip-rule="evenodd" d="M15.643.728c-.454-.97-1.832-.97-2.286 0l-3.47 7.418c-.178.382-.535.65-.952.714l-7.863 1.205C.058 10.221-.357 11.46.36 12.197l5.772 5.937c.279.287.405.69.341 1.085l-1.351 8.31c-.17 1.043.935 1.821 1.857 1.31l6.91-3.834a1.26 1.26 0 011.223 0l6.91 3.834c.923.511 2.027-.267 1.858-1.31l-1.351-8.31a1.265 1.265 0 01.341-1.085l5.772-5.937c.716-.736.301-1.975-.713-2.131L20.065 8.86a1.262 1.262 0 01-.952-.713l-3.47-7.42z" fill="#474442" fill-opacity=".4"/></svg>