<svg width="20" height="18" fill="none" xmlns="http://www.w3.org/2000/svg"><path d="M9.975 17.892a.783.783 0 01-.543-.218L1.778 10.23A5.919 5.919 0 01.002 6.17a5.902 5.902 0 011.564-4.145A6.233 6.233 0 015.623.043a6.292 6.292 0 014.352 1.254A6.288 6.288 0 0114.336.022a6.23 6.23 0 014.071 1.983 5.899 5.899 0 011.562 4.16 5.917 5.917 0 01-1.8 4.066l-7.65 7.443a.783.783 0 01-.544.218zm-3.84-16.41a4.72 4.72 0 00-2.58.756 4.527 4.527 0 00-1.708 2.024 4.382 4.382 0 00-.26 2.607 4.462 4.462 0 001.278 2.305l7.11 6.928 7.11-6.928a4.445 4.445 0 001.354-3.189A4.445 4.445 0 0017.077 2.8a4.703 4.703 0 00-3.279-1.317 4.702 4.702 0 00-3.276 1.324.951.951 0 01-.547.228.795.795 0 01-.556-.212 4.645 4.645 0 00-1.506-.983 4.75 4.75 0 00-1.779-.345v-.013z" fill="#35353D"/></svg>