<svg width="149" height="65" fill="none" xmlns="http://www.w3.org/2000/svg"><path d="M65.838 53.874v10.388h2.091V51.106h-2.107l-7.837 10.385V51.106h-2.091v13.156h2.091l7.853-10.388zm-17.37.106v10.282h2.092V51.106h-2.802l-5.04 10.392-5.039-10.392h-2.802v13.156h2.092V53.98l4.999 10.282h1.502l4.998-10.282zm-37.262-2.873h-7.73l-.222 5.855c-.05 1.32.164 6.197-3.254 5.772v1.435c4.206.69 5.192-3.147 5.313-6.343l.198-5.23 5.695.001v11.665h2.092V51.106h-2.092zm12 0l-5.89 13.155h2.091l1.502-3.438 6.628.001 1.502 3.437h2.092l-5.892-13.156h-.084l.003-.007-.935.004-.934-.004.002.007h-.084zm-1.646 8.227l2.663-6.095 2.663 6.095H21.56zm73.712-8.228l-5.891 13.156h2.092l1.502-3.438 6.628.001 1.501 3.437h2.092l-5.891-13.156h-.085l.003-.007-.934.004-.935-.004.003.007h-.085zm-1.647 8.228l2.663-6.095 2.663 6.095h-5.326zM83.21 51.106v5.577h-7.853v-5.577h-2.091v13.156h2.091v-6.089l7.853.002v6.088h2.09V51.107h-2.09zm26.041 0h-4.984v1.49h4.984v11.666h2.092V52.597h4.984v-1.49h-7.077zm16.576-.276c3.971 0 6.397 2.52 6.397 6.782 0 4.26-2.426 6.781-6.397 6.781-3.972 0-6.398-2.52-6.398-6.781 0-4.261 2.426-6.782 6.398-6.782zm0 1.483c-2.699 0-4.348 1.97-4.348 5.299 0 3.329 1.649 5.298 4.348 5.298 2.698 0 4.347-1.969 4.347-5.298 0-3.33-1.649-5.299-4.347-5.299zm11.05-1.206v13.156h2.092v-5.178h4.829c2.464 0 4.462-1.786 4.462-3.99 0-2.202-1.998-3.988-4.462-3.988h-6.922zm2.092 6.488v-4.998h4.829c1.343.167 2.378 1.235 2.378 2.499s-1.035 2.332-2.378 2.498h-4.829z" fill="#000"/><path fill-rule="evenodd" clip-rule="evenodd" d="M19.768 29.678h12.59L49.037 6.56l16.679 23.118h12.59L53.77 0h-9.466L19.768 29.678z" fill="#AA0B0B"/><path fill-rule="evenodd" clip-rule="evenodd" d="M69.954 29.678h12.59L99.223 6.56l16.679 23.118h12.589L103.956 0H94.49L69.954 29.678z" fill="#787272"/><path d="M44.861 29.678h12.59L74.13 6.56l16.679 23.118h12.589L78.863 0h-9.466L44.86 29.678z" fill="#000"/></svg>