<svg width="109" height="44" fill="none" xmlns="http://www.w3.org/2000/svg"><path d="M48.404 35.883v7.583h1.538v-9.603h-1.55l-5.761 7.58v-7.58h-1.538v9.603h1.538l5.773-7.583zm-12.77.078v7.505h1.538v-9.603h-2.06l-3.705 7.585-3.705-7.585h-2.06v9.603h1.538V35.96l3.675 7.505h1.104l3.675-7.505zM8.239 33.864H2.556l-.164 4.273c-.036.963.121 4.524-2.392 4.213v1.048c3.092.503 3.817-2.298 3.906-4.63l.146-3.817h4.187v8.515h1.538v-9.602H8.239zm8.822 0l-4.33 9.602h1.537l1.104-2.51 4.873.001 1.104 2.509h1.538l-4.331-9.602h-.062l.002-.006-.687.003-.687-.003.002.005h-.062zm-1.21 6.005l1.958-4.45 1.957 4.45h-3.915zm54.193-6.005l-4.331 9.602h1.538l1.104-2.51 4.873.001 1.104 2.509h1.538l-4.331-9.602h-.063l.002-.006-.687.003-.687-.003.002.005h-.062zm-1.21 6.005l1.957-4.45 1.958 4.45h-3.916zm-7.659-6.005v4.07h-5.773v-4.07h-1.538v9.602h1.538V39.02l5.773.001v4.444h1.538v-9.602h-1.538zm19.146 0h-3.665v1.087h3.665v8.515h1.538V34.95h3.664v-1.087h-5.202zm12.186-.202c2.92 0 4.703 1.84 4.703 4.95 0 3.11-1.783 4.95-4.703 4.95-2.92 0-4.704-1.84-4.704-4.95 0-3.11 1.784-4.95 4.704-4.95zm0 1.082c-1.984 0-3.196 1.438-3.196 3.868 0 2.43 1.212 3.867 3.196 3.867 1.984 0 3.196-1.437 3.196-3.867 0-2.43-1.212-3.868-3.196-3.868zm8.125-.88v9.602h1.537v-3.78l3.55.001h.001c1.811 0 3.28-1.304 3.28-2.912 0-1.608-1.469-2.911-3.281-2.911h-5.087zm1.537 4.735v-3.648h3.551c.987.122 1.748.902 1.748 1.824 0 .923-.761 1.703-1.749 1.824h-3.55z" fill="#000"/><path fill-rule="evenodd" clip-rule="evenodd" d="M14.533 21.662h9.256L36.052 4.788l12.262 16.874h9.256L39.532 0h-6.96L14.533 21.662z" fill="#AA0B0B"/><path fill-rule="evenodd" clip-rule="evenodd" d="M51.43 21.662h9.256L72.948 4.788l12.263 16.874h9.256L76.428 0h-6.96L51.43 21.662z" fill="#787272"/><path d="M32.982 21.662h9.256L54.5 4.788l12.263 16.874h9.255L57.98 0h-6.96L32.982 21.662z" fill="#000"/></svg>