<svg width="177" height="77" fill="none" xmlns="http://www.w3.org/2000/svg"><path d="M78.6 64.561v12.261h2.498V61.295h-2.516L69.226 73.55V61.295H66.73v15.527h2.497l9.375-12.26zm-20.736.125v12.136h2.498V61.295h-3.346L51 73.559l-6.016-12.264h-3.346v15.527h2.498V64.686l5.967 12.136h1.794l5.967-12.136zM13.38 61.295H4.15l-.265 6.91c-.06 1.558.196 7.315-3.885 6.813v1.694c5.021.814 6.198-3.715 6.343-7.486l.237-6.173 6.798.002v13.767h2.498V61.295h-2.498zm14.326 0l-7.033 15.527h2.497l1.794-4.058 7.912.001 1.793 4.057h2.498l-7.034-15.527h-.1l.003-.008-1.116.004-1.116-.004.004.008h-.101zm-1.965 9.71l3.179-7.193 3.179 7.194H25.74zm88.001-9.71l-7.033 15.527h2.497L111 72.764l7.912.001 1.793 4.057h2.497l-7.033-15.527h-.101l.003-.008-1.115.004-1.116-.004.004.008h-.102zm-1.966 9.71l3.179-7.193 3.18 7.194h-6.359zm-12.436-9.71v6.582h-9.374v-6.582h-2.497v15.527h2.497v-7.187l9.374.002v7.185h2.498V61.295H99.34zm31.09 0h-5.95v1.758h5.95v13.77h2.498v-13.77h5.95v-1.76l-5.95.001h-2.498zm19.789-.326c4.741 0 7.637 2.975 7.637 8.004s-2.896 8.004-7.637 8.004c-4.742 0-7.638-2.975-7.638-8.004 0-5.03 2.896-8.004 7.638-8.004zm0 1.75c-3.222 0-5.191 2.324-5.191 6.254 0 3.929 1.969 6.253 5.191 6.253 3.222 0 5.19-2.324 5.19-6.253 0-3.93-1.968-6.254-5.19-6.254zm13.193-1.424v15.527h2.497v-6.111l5.765.001c2.942 0 5.327-2.108 5.327-4.709 0-2.6-2.385-4.708-5.327-4.708h-8.262zm2.497 7.657v-5.898l5.765.001c1.603.196 2.839 1.456 2.839 2.949 0 1.491-1.236 2.752-2.839 2.948h-5.765z" fill="#fff"/><path fill-rule="evenodd" clip-rule="evenodd" d="M23.6 36.004h15.03L58.543 8.72l19.912 27.285h15.03L64.193.977h-11.3L23.6 36.004z" fill="#AA0B0B"/><path fill-rule="evenodd" clip-rule="evenodd" d="M83.515 36.004h15.03L118.458 8.72l19.912 27.285h15.03L124.108.977h-11.301L83.515 36.004z" fill="#787272"/><path d="M53.558 36.004h15.03L88.5 8.72l19.913 27.285h15.03L94.151.977H82.85L53.558 36.004z" fill="#000"/></svg>