<svg width="14" height="24" fill="none" xmlns="http://www.w3.org/2000/svg"><path d="M9.505 17.44a11.599 11.599 0 003.6-1.49 1.816 1.816 0 00-1.935-3.073 7.866 7.866 0 01-8.34 0 1.814 1.814 0 00-2.5.565c0 .002 0 .004-.002.005a1.812 1.812 0 00.567 2.5l.002.002c1.105.695 2.322 1.2 3.596 1.488l-3.465 3.465A1.796 1.796 0 001 23.439l.03.03c.344.354.81.53 1.274.53.465 0 .93-.176 1.275-.53L7 20.065l3.404 3.406a1.815 1.815 0 002.566-2.565L9.505 17.44zM7 12.388a6.202 6.202 0 006.195-6.193A6.203 6.203 0 007 0 6.204 6.204 0 00.805 6.197 6.2 6.2 0 007 12.389v-.001zm0-8.757a2.566 2.566 0 010 5.13 2.569 2.569 0 01-2.565-2.564A2.57 2.57 0 017 3.63v.001z" fill="#AA0B0B"/></svg>