<svg width="55" height="69" fill="none" xmlns="http://www.w3.org/2000/svg"><path d="M14.922 45.578c-.755-.041-2.783-.006-3.011-.002a1.328 1.328 0 00-1.303 1.327V59.27a1.327 1.327 0 102.654 0v-4.856h1.951c1.705 0 4.241-1.128 4.241-4.238 0-1.623-.59-4.378-4.532-4.598zm.291 6.182h-1.951v-3.546a31.36 31.36 0 011.513.014c1.344.075 2.025.397 2.025 1.95 0 1.345-1.003 1.569-1.587 1.582zm28.126-6.201H38.03c-.733 0-1.327.593-1.327 1.327V59.27a1.327 1.327 0 102.654 0v-4.865h3.538a1.327 1.327 0 100-2.654h-3.538v-3.538h3.98a1.327 1.327 0 100-2.654zm-19.019 0c-.733 0-1.327.593-1.327 1.327v12.36c0 .686.522 1.26 1.205 1.322.046.004.343.03.805.03 1.44 0 4.482-.245 6.547-2.131 1.365-1.245 2.057-2.94 2.057-5.037 0-6.506-5.05-7.871-9.287-7.871zM29.769 56.5c-1.162 1.065-2.943 1.356-4.123 1.423v-9.67c2.8.198 5.308 1.199 5.308 5.175 0 1.335-.387 2.34-1.185 3.072z" fill="#fff" fill-opacity=".5"/><path d="M54.013 16.741L37.86.395A1.328 1.328 0 0036.916 0H1.762C1.029 0 .435.594.435 1.327v66.346c0 .733.594 1.327 1.327 1.327h51.307c.733 0 1.327-.594 1.327-1.327v-50c0-.348-.137-.683-.383-.932zm-15.54-11.95l11.438 11.575H38.473V4.791zM3.09 66.347V2.655h32.73v15.038c0 .733.595 1.327 1.327 1.327h14.596v47.327H3.09z" fill="#fff" fill-opacity=".5"/></svg>