<svg width="19" height="20" fill="none" xmlns="http://www.w3.org/2000/svg"><path d="M18.96 14.722c-.054-.162-.396-.4-1.026-.715a31.96 31.96 0 00-.728-.405c-.315-.17-.601-.328-.857-.472a28.409 28.409 0 01-.722-.418 17.92 17.92 0 00-.338-.236 3.786 3.786 0 00-.479-.29.882.882 0 00-.385-.095c-.18 0-.404.128-.674.385-.27.256-.517.535-.742.836-.225.302-.463.58-.715.837-.252.257-.46.385-.62.385a.919.919 0 01-.305-.068 3.138 3.138 0 01-.277-.114 5.063 5.063 0 01-.323-.19 8.355 8.355 0 00-.257-.155c-1.232-.684-2.29-1.466-3.17-2.348-.882-.882-1.665-1.939-2.349-3.171a7.8 7.8 0 00-.155-.257 4.867 4.867 0 01-.19-.324 2.926 2.926 0 01-.114-.276.913.913 0 01-.067-.304c0-.162.128-.369.384-.62a8.37 8.37 0 01.837-.716 6.5 6.5 0 00.837-.742c.256-.27.384-.494.384-.674a.881.881 0 00-.094-.385c-.063-.13-.16-.29-.29-.48-.13-.188-.21-.3-.237-.337a29.616 29.616 0 01-.418-.721 68.061 68.061 0 01-.472-.857 32.457 32.457 0 00-.405-.729C4.678.436 4.44.094 4.278.041A.756.756 0 003.995 0c-.243 0-.56.045-.952.135-.391.09-.7.184-.924.283-.45.19-.927.738-1.43 1.647C.228 2.91 0 3.747 0 4.575c0 .242.016.478.047.708a5.9 5.9 0 00.169.776c.08.288.146.502.196.64.049.14.141.39.276.75.135.36.216.58.243.661.315.882.688 1.669 1.12 2.362.71 1.151 1.68 2.341 2.908 3.57 1.228 1.227 2.418 2.197 3.57 2.907.692.432 1.48.805 2.361 1.12.081.027.301.108.661.244.36.134.61.227.749.276.14.05.353.115.64.196.29.081.548.137.777.17.23.03.466.046.708.046.828 0 1.665-.23 2.51-.688.909-.504 1.458-.98 1.646-1.43.1-.226.194-.534.284-.925.09-.391.135-.708.135-.951a.753.753 0 00-.04-.285z" fill="#AA0B0B"/></svg>