<svg width="40" height="13" fill="none" xmlns="http://www.w3.org/2000/svg"><path d="M20.687 4.14c-.023 1.803 1.604 2.81 2.829 3.408 1.259.614 1.681 1.008 1.677 1.557-.01.84-1.005 1.211-1.936 1.226-1.623.025-2.568-.44-3.318-.791l-.585 2.744c.753.347 2.147.65 3.594.664 3.394 0 5.615-1.68 5.627-4.284.013-3.305-4.56-3.488-4.53-4.965.011-.448.438-.926 1.372-1.048.462-.061 1.74-.108 3.187.56l.568-2.655A8.644 8.644 0 0026.147 0c-3.195 0-5.442 1.703-5.46 4.14zM34.631.228c-.62 0-1.142.362-1.375.918l-4.85 11.606H31.8l.675-1.87h4.145l.391 1.87H40L37.391.229h-2.76zm.474 3.383l.98 4.703h-2.682l1.702-4.703zM16.575.23L13.9 12.753h3.232L19.805.229h-3.23zm-4.782 0L8.428 8.753l-1.36-7.248C6.907.695 6.277.229 5.576.229h-5.5L0 .592c1.13.246 2.412.642 3.189 1.066.476.259.611.485.768 1.1l2.577 9.995H9.95L15.187.229h-3.394z" fill="#253794"/></svg>