<svg width="14" height="7" viewBox="0 0 14 7" fill="none" xmlns="http://www.w3.org/2000/svg">
<path fill-rule="evenodd" clip-rule="evenodd" d="M13.3698 0.256644C13.4563 0.337887 13.5249 0.434402 13.5717 0.540659C13.6185 0.646915 13.6426 0.760826 13.6426 0.875867C13.6426 0.990909 13.6185 1.10482 13.5717 1.21108C13.5249 1.31733 13.4563 1.41385 13.3698 1.49509L7.79962 6.74275C7.71338 6.8242 7.61094 6.88882 7.49815 6.93291C7.38536 6.977 7.26445 6.9997 7.14233 6.9997C7.02022 6.9997 6.89931 6.977 6.78652 6.93291C6.67373 6.88882 6.57129 6.8242 6.48505 6.74275L0.914834 1.49509C0.740511 1.33086 0.642578 1.10812 0.642578 0.875867C0.642578 0.643613 0.740511 0.420871 0.914834 0.256643C1.08916 0.0924149 1.32559 0.000152203 1.57212 0.000152213C1.81865 0.000152224 2.05508 0.0924149 2.22941 0.256643L7.14233 4.88683L12.0553 0.256644C12.1415 0.175194 12.2439 0.110574 12.3567 0.0664822C12.4695 0.0223906 12.5904 -0.000305222 12.7125 -0.000305216C12.8347 -0.000305211 12.9556 0.0223906 13.0684 0.0664822C13.1812 0.110574 13.2836 0.175194 13.3698 0.256644Z" fill="#474442"/>
</svg>
