<svg width="14" height="7" viewBox="0 0 14 7" fill="none" xmlns="http://www.w3.org/2000/svg">
<path fill-rule="evenodd" clip-rule="evenodd" d="M13.3698 0.256461C13.4563 0.337704 13.5249 0.434219 13.5717 0.540476C13.6185 0.646732 13.6426 0.760643 13.6426 0.875684C13.6426 0.990725 13.6185 1.10464 13.5717 1.21089C13.5249 1.31715 13.4563 1.41366 13.3698 1.49491L7.79962 6.74256C7.71338 6.82401 7.61094 6.88863 7.49815 6.93272C7.38536 6.97682 7.26445 6.99951 7.14233 6.99951C7.02022 6.99951 6.89931 6.97682 6.78652 6.93272C6.67373 6.88863 6.57129 6.82401 6.48505 6.74256L0.914834 1.49491C0.740511 1.33068 0.642578 1.10794 0.642578 0.875684C0.642578 0.64343 0.740511 0.420688 0.914834 0.25646C1.08916 0.0922317 1.32559 -3.09029e-05 1.57212 -3.08921e-05C1.81865 -3.08814e-05 2.05508 0.0922318 2.22941 0.25646L7.14233 4.88664L12.0553 0.25646C12.1415 0.175011 12.2439 0.110391 12.3567 0.0662991C12.4695 0.0222075 12.5904 -0.000488327 12.7125 -0.000488322C12.8347 -0.000488317 12.9556 0.0222075 13.0684 0.0662991C13.1812 0.110391 13.2836 0.175011 13.3698 0.256461Z" fill="white"/>
</svg>
