<svg width="13" height="7" viewBox="0 0 13 7" fill="none" xmlns="http://www.w3.org/2000/svg">
<path fill-rule="evenodd" clip-rule="evenodd" d="M12.7273 0.256949C12.8137 0.338192 12.8823 0.434707 12.9291 0.540964C12.9759 0.64722 13 0.761131 13 0.876172C13 0.991214 12.9759 1.10512 12.9291 1.21138C12.8823 1.31764 12.8137 1.41415 12.7273 1.4954L7.15704 6.74305C7.0708 6.8245 6.96836 6.88912 6.85557 6.93321C6.74278 6.9773 6.62187 7 6.49976 7C6.37764 7 6.25673 6.9773 6.14394 6.93321C6.03116 6.88912 5.92871 6.8245 5.84247 6.74305L0.272256 1.4954C0.0979328 1.33117 -4.84508e-08 1.10843 -3.82987e-08 0.876172C-2.81466e-08 0.643918 0.0979328 0.421176 0.272256 0.256948C0.446579 0.09272 0.683013 0.000457378 0.929543 0.000457389C1.17607 0.0004574 1.4125 0.0927201 1.58683 0.256948L6.49976 4.88713L11.4127 0.256949C11.4989 0.175499 11.6014 0.110879 11.7142 0.0667874C11.8269 0.0226958 11.9479 -4.59905e-08 12.07 -4.06528e-08C12.1921 -3.53151e-08 12.313 0.0226958 12.4258 0.0667874C12.5386 0.110879 12.641 0.1755 12.7273 0.256949Z" fill="#AA0B0B"/>
</svg>
