<svg width="25" height="20" viewBox="0 0 25 20" fill="none" xmlns="http://www.w3.org/2000/svg">
<path fill-rule="evenodd" clip-rule="evenodd" d="M0 1.00031C0 0.448025 0.469716 0.000305176 1.04914 0.000305176H3.64789C5.06381 0.000305176 6.30545 0.901505 6.68198 2.20252L7.2023 4.00031H21.8506C23.9518 4.00031 25.463 5.92537 24.8701 7.84681L23.4095 12.5801C23.0692 13.6831 22.0973 14.5037 20.9074 14.6927L11.4797 16.1904C9.88984 16.443 8.35675 15.51 7.92813 14.029L4.65925 2.73438C4.53374 2.3007 4.11986 2.00031 3.64789 2.00031H1.04914C0.469716 2.00031 0 1.55259 0 1.00031ZM7.78113 6.00031L9.95087 13.4972C10.0937 13.9908 10.6047 14.3018 11.1348 14.2176L20.5624 12.72C20.9591 12.6569 21.283 12.3834 21.3965 12.0157L22.857 7.28248C23.0547 6.642 22.551 6.00031 21.8506 6.00031H7.78113ZM9.44228 19.0003C9.44228 18.448 9.91199 18.0003 10.4914 18.0003H11.5406C12.12 18.0003 12.5897 18.448 12.5897 19.0003C12.5897 19.5526 12.12 20.0003 11.5406 20.0003H10.4914C9.91199 20.0003 9.44228 19.5526 9.44228 19.0003ZM17.8354 19.0003C17.8354 18.448 18.3051 18.0003 18.8846 18.0003H19.9337C20.5131 18.0003 20.9828 18.448 20.9828 19.0003C20.9828 19.5526 20.5131 20.0003 19.9337 20.0003H18.8846C18.3051 20.0003 17.8354 19.5526 17.8354 19.0003Z" fill="#474442"/>
</svg>
