<svg width="35" height="21" viewBox="0 0 35 21" fill="none" xmlns="http://www.w3.org/2000/svg">
<path d="M32.9344 12.4134H32.7728C32.7728 11.9292 32.7728 11.461 32.7728 10.9768C32.7728 8.5877 30.3326 8.5877 30.3326 8.5877H28.7166C28.7166 8.42628 28.555 8.42628 28.555 8.26485C27.5854 6.36006 26.438 4.29385 26.2764 4.13243C25.9532 3.50288 25.1452 3.01861 24.3372 3.01861H18.1802V1.11382C18.1802 0.484269 17.6954 0 17.049 0H1.13121C0.646405 0 0 0.484269 0 1.11382C0 6.19864 0 11.2996 0 16.3844C0 17.014 0.484804 17.4982 1.13121 17.4982H3.07043C3.71683 19.0963 5.34901 20.3554 7.28823 20.3554C9.22744 20.3554 10.8596 19.0802 11.3444 17.4982H22.8666C23.513 19.0963 25.1452 20.3554 27.0844 20.3554C28.862 20.3554 30.4942 19.0802 31.1406 17.4982H32.9182C33.5646 17.4982 34.0494 17.014 34.0494 16.3844V13.5272C34.0656 12.8815 33.5808 12.4134 32.9344 12.4134ZM9.4052 16.3844C9.2436 17.4982 8.5972 18.2892 7.28823 18.2892C5.97925 18.2892 5.34901 17.4982 5.17125 16.3844C5.17125 15.1092 5.97925 14.3182 7.28823 14.3182C8.5972 14.3182 9.4052 15.1092 9.4052 16.3844ZM19.2952 8.5877C18.6488 8.5877 18.164 8.10343 18.164 7.6353C18.164 7.00575 18.164 6.36006 18.164 5.89194C18.164 5.26239 18.6488 4.77812 19.2952 4.77812L23.6746 4.93954C24.1594 4.93954 24.4826 5.10096 24.8058 5.42381L25.7754 7.49002C25.937 7.81287 25.937 8.11957 25.7754 8.44242C25.6138 8.44242 25.4522 8.60384 25.129 8.60384H19.2952V8.5877ZM29.2014 16.3844C29.2014 17.4982 28.3934 18.2892 27.2622 18.2892C25.9694 18.2892 25.1452 17.4982 25.1452 16.3844C25.1452 15.1092 25.9532 14.3182 27.2622 14.3182C28.3934 14.3182 29.2014 15.1092 29.2014 16.3844Z" fill="#464341" fill-opacity="0.4"/>
</svg>
