<svg width="29" height="29" viewBox="0 0 29 29" fill="none" xmlns="http://www.w3.org/2000/svg">
<path fill-rule="evenodd" clip-rule="evenodd" d="M15.6429 0.727837C15.189 -0.242614 13.811 -0.242612 13.3571 0.727839L9.88731 8.14647C9.70868 8.52838 9.35164 8.79592 8.93539 8.85975L1.07244 10.0654C0.0577905 10.221 -0.356905 11.4601 0.359155 12.1967L6.13071 18.1338C6.40973 18.4208 6.53639 18.8233 6.47211 19.2187L5.12101 27.5299C4.95165 28.5717 6.05634 29.3502 6.97824 28.8388L13.8885 25.0053C14.2689 24.7942 14.7311 24.7942 15.1115 25.0053L22.0218 28.8388C22.9437 29.3502 24.0483 28.5717 23.879 27.5299L22.5279 19.2188C22.4636 18.8234 22.5903 18.4208 22.8693 18.1338L28.6408 12.1972C29.3569 11.4606 28.9423 10.2215 27.9276 10.0659L20.0646 8.85977C19.6483 8.79593 19.2913 8.5284 19.1127 8.1465L15.6429 0.727837Z" fill="#474442" fill-opacity="0.4"/>
</svg>
