<svg width="15" height="22" viewBox="0 0 15 22" fill="none" xmlns="http://www.w3.org/2000/svg">
<path fill-rule="evenodd" clip-rule="evenodd" d="M7.5 0C3.35357 0 0 3.443 0 7.7C0 12.287 4.73571 18.612 6.68571 21.021C7.11429 21.549 7.89643 21.549 8.325 21.021C10.2643 18.612 15 12.287 15 7.7C15 3.443 11.6464 0 7.5 0ZM7.5 10.45C6.02143 10.45 4.82143 9.218 4.82143 7.7C4.82143 6.182 6.02143 4.95 7.5 4.95C8.97857 4.95 10.1786 6.182 10.1786 7.7C10.1786 9.218 8.97857 10.45 7.5 10.45Z" fill="#474442"/>
</svg>
