<svg width="20" height="18" viewBox="0 0 20 18" fill="none" xmlns="http://www.w3.org/2000/svg">
<path d="M18.3797 1.62324C17.816 1.06911 17.1425 0.639251 16.4025 0.361383C15.6625 0.0835152 14.8725 -0.0361985 14.0834 0.00995956C13.2942 0.0561176 12.5236 0.267123 11.821 0.629373C11.1185 0.991623 10.4996 1.49708 10.0044 2.11315C9.50912 1.49708 8.89026 0.991623 8.18771 0.629373C7.48515 0.267123 6.71447 0.0561176 5.92537 0.00995956C5.13627 -0.0361985 4.34625 0.0835152 3.60625 0.361383C2.86625 0.639251 2.19269 1.06911 1.62899 1.62324C0.585806 2.66937 0 4.08646 0 5.56383C0 7.04121 0.585806 8.4583 1.62899 9.50443L9.55279 17.424C9.61183 17.4837 9.68215 17.5312 9.75966 17.5636C9.83718 17.596 9.92035 17.6126 10.0044 17.6126C10.0884 17.6126 10.1715 17.596 10.2491 17.5636C10.3266 17.5312 10.3969 17.4837 10.4559 17.424L18.3797 9.50443C19.4177 8.45557 20 7.0395 20 5.56383C20 4.08817 19.4177 2.6721 18.3797 1.62324Z" fill="#fff"/>
</svg>
