<svg width="20" height="18" viewBox="0 0 20 18" fill="none" xmlns="http://www.w3.org/2000/svg">
<path d="M9.97535 17.8924C9.77149 17.8922 9.576 17.8135 9.43156 17.6736L1.77786 10.2314C0.676347 9.14587 0.0413379 7.69319 0.00194813 6.1687C-0.0374417 4.64421 0.521745 3.16236 1.56581 2.02444C2.60988 0.886522 4.06044 0.177967 5.62257 0.0428412C7.18469 -0.0922846 8.74111 0.356163 9.97535 1.297C11.2084 0.346661 12.7684 -0.109384 14.336 0.022245C15.9036 0.153874 17.3601 0.86322 18.4073 2.00504C19.4546 3.14686 20.0133 4.63477 19.9692 6.16411C19.925 7.69344 19.2812 9.14851 18.1697 10.2314L10.5191 17.6736C10.3747 17.8135 10.1792 17.8922 9.97535 17.8924ZM6.13444 1.48238C5.21688 1.47997 4.31932 1.74299 3.55591 2.23797C2.7925 2.73296 2.19775 3.43754 1.84729 4.26211C1.49684 5.08669 1.40652 5.99398 1.58782 6.86861C1.76912 7.74323 2.21385 8.54566 2.86544 9.17383L9.97535 16.1025L17.0853 9.17383C17.9535 8.32757 18.4404 7.18059 18.439 5.98521C18.4375 4.78984 17.9478 3.64399 17.0774 2.79974C16.2071 1.95549 15.0276 1.482 13.7982 1.48342C12.5689 1.48485 11.3905 1.96107 10.5223 2.80734C10.3702 2.93904 10.1783 3.01904 9.97535 3.03525C9.87276 3.03737 9.77076 3.01965 9.67527 2.98314C9.57977 2.94662 9.49269 2.89203 9.41906 2.82253C8.98849 2.40174 8.47667 2.06781 7.91299 1.83991C7.34932 1.61202 6.7449 1.49464 6.13444 1.49453V1.48238Z" fill="#35353D"/>
</svg>
