<svg width="109" height="44" viewBox="0 0 109 44" fill="none" xmlns="http://www.w3.org/2000/svg">
<path d="M48.4039 35.8834V43.4658H49.9417V33.8634H48.4039H48.3925L42.6308 41.4428V33.8634H41.093V43.4658H42.6308L48.4039 35.8834ZM35.634 35.9607V43.4658H37.1718V33.8634H36.661H35.634H35.1118L31.4068 41.4479L27.7018 33.8634H27.1795H26.1525H25.6417V43.4658H27.1795V35.9607L30.8546 43.4658H31.9589L35.634 35.9607ZM8.23878 33.8635V33.8636L4.09356 33.8636V33.8635H2.55573L2.39243 38.1372C2.35557 39.1005 2.51298 42.6607 0 42.3502V43.3977C3.09213 43.9014 3.81708 41.1005 3.9062 38.7683L4.05198 34.951L8.2387 34.9516V43.4659H9.77653V34.9519V33.8635H8.2387H8.23878ZM17.0614 33.8635L12.7303 43.4659H14.2681L15.3725 40.9562L20.2453 40.957L21.3493 43.4659H22.8872L18.556 33.8635L18.4937 33.8633L18.4959 33.8584L17.8088 33.8609L17.1218 33.8584L17.1239 33.8633L17.0616 33.8635H17.0614ZM15.8509 39.8689L17.8087 35.4198L19.7664 39.8688L15.8509 39.8689H15.8509ZM70.0439 33.8635L65.7128 43.4659H67.2507L68.355 40.9562L73.2278 40.957L74.3319 43.4659H75.8698L71.5386 33.8635L71.4762 33.8633L71.4784 33.8584L70.7913 33.8609L70.1043 33.8584L70.1064 33.8633L70.0441 33.8635H70.0439ZM68.8335 39.8689L70.7912 35.4198L72.7489 39.8688L68.8334 39.8689H68.8335ZM61.1751 33.8635V37.934L55.402 37.9341V33.8635H53.8642V43.4659H55.402V39.0213L61.1751 39.0224V43.466H62.7129V33.8636H61.1751V33.8635ZM80.3209 33.8635V33.8636L76.6565 33.8637V34.9508L80.3209 34.9512V43.4659H81.8588V34.9514L85.5232 34.9519V33.8635L81.8588 33.8636V33.8635H80.3209ZM92.5069 33.6618C95.4268 33.6618 97.2104 35.5016 97.2104 38.6116C97.2104 41.7217 95.4268 43.5615 92.5069 43.5615C89.5871 43.5615 87.8034 41.7217 87.8034 38.6116C87.8034 35.5016 89.5871 33.6618 92.5069 33.6618ZM92.5069 34.7441C90.5228 34.7441 89.3107 36.1816 89.3107 38.6116C89.3107 41.0416 90.5228 42.479 92.5069 42.479C94.4911 42.479 95.7031 41.0416 95.7031 38.6116C95.7031 36.1816 94.4911 34.7441 92.5069 34.7441ZM100.632 33.8636V43.466H102.169V39.6866L105.719 39.6873L105.72 39.687C107.531 39.687 109 38.3834 109 36.7753C109 35.1672 107.531 33.8637 105.719 33.8636V33.8636L102.169 33.8637V33.8636H100.632ZM102.169 38.5991V34.9511L105.719 34.9519L105.72 34.9518C106.707 35.0734 107.468 35.8527 107.468 36.7753C107.468 37.698 106.707 38.4775 105.719 38.599L102.169 38.5991Z" fill="black"/>
<path fill-rule="evenodd" clip-rule="evenodd" d="M14.5334 21.6618H23.7892L36.0518 4.78823L48.3143 21.6618H57.5701L39.5315 0H32.572L14.5334 21.6618Z" fill="#AA0B0B"/>
<path fill-rule="evenodd" clip-rule="evenodd" d="M51.4302 21.6618H60.686L72.9485 4.78823L85.2109 21.6618H94.4668L76.4282 0H69.4687L51.4302 21.6618Z" fill="#787272"/>
<path d="M32.9819 21.6618H42.2377L54.5002 4.78823L66.7627 21.6618H76.0185L57.98 0H51.0204L32.9819 21.6618Z" fill="black"/>
</svg>
