<svg width="177" height="77" viewBox="0 0 177 77" fill="none" xmlns="http://www.w3.org/2000/svg">
<path d="M78.6008 64.5611V76.8221H81.098V61.2948H78.6008H78.5824L69.2262 73.5508V61.2948H66.729V76.8221H69.2262L78.6008 64.5611ZM57.8644 64.6861V76.8221H60.3616V61.2948H59.5321H57.8644H57.0163L51 73.5591L44.9836 61.2948H44.1355H42.4679H41.6383V76.8221H44.1355V64.6861L50.1033 76.8221H51.8966L57.8644 64.6861ZM13.3786 61.2949V61.295L6.64734 61.2952V61.2949H4.15013L3.88496 68.2056C3.82509 69.7633 4.0807 75.5202 0 75.0181V76.712C5.02117 77.5264 6.19837 72.9972 6.34309 69.226L6.57982 63.0534L13.3784 63.0545V76.8222H15.8756V63.0548V61.2949H13.3784H13.3786ZM27.7052 61.2949L20.6722 76.8222H23.1694L24.9627 72.7639L32.8754 72.7653L34.6682 76.8222H37.1655L30.1323 61.2949L30.0311 61.2946L30.0345 61.2867L28.9189 61.2907L27.8032 61.2867L27.8067 61.2946L27.7055 61.2949H27.7052ZM25.7396 71.0058L28.9186 63.8115L32.0977 71.0057L25.7395 71.0058H25.7396ZM113.741 61.2949L106.708 76.8222H109.205L110.999 72.7639L118.911 72.7653L120.704 76.8222H123.201L116.168 61.2949L116.067 61.2946L116.07 61.2867L114.955 61.2907L113.839 61.2867L113.843 61.2946L113.741 61.2949H113.741ZM111.775 71.0058L114.954 63.8115L118.134 71.0057L111.775 71.0058H111.775ZM99.3394 61.2949V67.877L89.9648 67.8773V61.2949H87.4676V76.8222H89.9648V69.6353L99.3394 69.6369V76.8223H101.837V61.295H99.3394V61.2949ZM130.429 61.2949V61.2952L124.479 61.2953V63.0531L130.429 63.0538V76.8222H132.927V63.0541L138.877 63.0548V61.2949L132.927 61.2952V61.2949H130.429ZM150.218 60.9688C154.959 60.9688 157.855 63.9437 157.855 68.9727C157.855 74.0018 154.959 76.9767 150.218 76.9767C145.476 76.9767 142.58 74.0018 142.58 68.9727C142.58 63.9437 145.476 60.9688 150.218 60.9688ZM150.218 62.719C146.996 62.719 145.027 65.0433 145.027 68.9727C145.027 72.902 146.996 75.2264 150.218 75.2264C153.44 75.2264 155.408 72.902 155.408 68.9727C155.408 65.0433 153.44 62.719 150.218 62.719ZM163.411 61.295V76.8223H165.908V70.711L171.673 70.7122L171.673 70.7117C174.615 70.7116 177 68.6037 177 66.0035C177 63.4031 174.615 61.2953 171.673 61.2952V61.295L165.908 61.2953V61.295H163.411ZM165.908 68.9525V63.0537L171.673 63.055L171.673 63.0547C173.276 63.2513 174.512 64.5115 174.512 66.0035C174.512 67.4954 173.276 68.7558 171.673 68.9524L165.908 68.9525Z" fill="white"/>
<path fill-rule="evenodd" clip-rule="evenodd" d="M23.6001 36.0041H38.6302L58.5428 8.71924L78.4553 36.0041H93.4853L64.1932 0.976562H52.8921L23.6001 36.0041Z" fill="#AA0B0B"/>
<path fill-rule="evenodd" clip-rule="evenodd" d="M83.5151 36.0041H98.5452L118.458 8.71924L138.37 36.0041H153.4L124.108 0.976562H112.807L83.5151 36.0041Z" fill="#787272"/>
<path d="M53.5577 36.0041H68.5878L88.5003 8.71924L108.413 36.0041H123.443L94.1509 0.976562H82.8496L53.5577 36.0041Z" fill="black"/>
</svg>
