<svg width="149" height="65" viewBox="0 0 149 65" fill="none" xmlns="http://www.w3.org/2000/svg">
<path d="M65.8377 53.8739V64.2624H67.9294V51.1064H65.8377H65.8223L57.9853 61.4907V51.1064H55.8936V64.2624H57.9853L65.8377 53.8739ZM48.4685 53.9798V64.2624H50.5602V51.1064H49.8653H48.4685H47.7581L42.7187 61.4977L37.6792 51.1064H36.9688H35.572H34.8771V64.2624H36.9688V53.9798L41.9676 64.2624H43.4697L48.4685 53.9798ZM11.2062 51.1065V51.1066L5.56795 51.1067V51.1065H3.47624L3.25413 56.9617C3.20398 58.2816 3.41809 63.1593 0 62.7339V64.1691C4.20584 64.8591 5.19189 61.0216 5.31311 57.8264L5.5114 52.5964L11.2061 52.5973V64.2624H13.2978V52.5976V51.1065H11.2061H11.2062ZM23.2065 51.1065L17.3154 64.2624H19.4072L20.9093 60.8239L27.5372 60.8251L29.0388 64.2624H31.1306L25.2395 51.1065L25.1547 51.1062L25.1576 51.0995L24.2231 51.1029L23.2886 51.0995L23.2915 51.1062L23.2067 51.1065H23.2065ZM21.56 59.3343L24.2229 53.2388L26.8857 59.3342L21.5599 59.3343H21.56ZM95.272 51.1065L89.3808 64.2624H91.4726L92.9748 60.8239L99.6026 60.8251L101.104 64.2624H103.196L97.3049 51.1065L97.2201 51.1062L97.2231 51.0995L96.2886 51.1029L95.3541 51.0995L95.3569 51.1062L95.2722 51.1065H95.272ZM93.6255 59.3343L96.2884 53.2388L98.9512 59.3342L93.6254 59.3343H93.6255ZM83.2088 51.1065V56.6834L75.3564 56.6836V51.1065H73.2647V64.2624H75.3564V58.1731L83.2088 58.1745V64.2626H85.3005V51.1066H83.2088V51.1065ZM109.25 51.1065V51.1067L104.266 51.1068V52.5961L109.25 52.5967V64.2624H111.342V52.597L116.326 52.5976V51.1065L111.342 51.1067V51.1065H109.25ZM125.826 50.8301C129.797 50.8301 132.223 53.3508 132.223 57.6118C132.223 61.8728 129.797 64.3934 125.826 64.3934C121.854 64.3934 119.428 61.8728 119.428 57.6118C119.428 53.3508 121.854 50.8301 125.826 50.8301ZM125.826 52.3131C123.127 52.3131 121.478 54.2825 121.478 57.6118C121.478 60.941 123.127 62.9104 125.826 62.9104C128.524 62.9104 130.173 60.941 130.173 57.6118C130.173 54.2825 128.524 52.3131 125.826 52.3131ZM136.876 51.1066V64.2626H138.968V59.0846L143.797 59.0856L143.797 59.0852C146.261 59.0851 148.259 57.2991 148.259 55.0959C148.259 52.8927 146.261 51.1068 143.797 51.1067V51.1066L138.968 51.1068V51.1066H136.876ZM138.968 57.5946V52.5966L143.797 52.5977L143.797 52.5975C145.14 52.7641 146.175 53.8318 146.175 55.0959C146.175 56.3601 145.14 57.428 143.797 57.5945L138.968 57.5946Z" fill="black"/>
<path fill-rule="evenodd" clip-rule="evenodd" d="M19.7681 29.6781H32.3576L49.0368 6.56021L65.7159 29.6781H78.3054L53.7697 0H44.3037L19.7681 29.6781Z" fill="#AA0B0B"/>
<path fill-rule="evenodd" clip-rule="evenodd" d="M69.9541 29.6781H82.5436L99.2227 6.56021L115.902 29.6781H128.491L103.956 0H94.4896L69.9541 29.6781Z" fill="#787272"/>
<path d="M44.8613 29.6781H57.4508L74.13 6.56021L90.809 29.6781H103.398L78.863 0H69.3968L44.8613 29.6781Z" fill="black"/>
</svg>
