<svg width="26" height="17" viewBox="0 0 26 17" fill="none" xmlns="http://www.w3.org/2000/svg">
<path d="M24 8.47656L24.6993 7.76173L25.43 8.47656L24.6993 9.1914L24 8.47656ZM1 9.47656C0.447716 9.47656 4.99442e-07 9.02884 5.96007e-07 8.47656C6.92571e-07 7.92427 0.447717 7.47656 1 7.47656L1 9.47656ZM17.0326 0.261727L24.6993 7.76173L23.3007 9.1914L15.634 1.6914L17.0326 0.261727ZM24.6993 9.1914L17.0326 16.6914L15.634 15.2617L23.3007 7.76173L24.6993 9.1914ZM24 9.47656L1 9.47656L1 7.47656L24 7.47656L24 9.47656Z" fill="white"/>
</svg>
