<svg width="14" height="24" viewBox="0 0 14 24" fill="none" xmlns="http://www.w3.org/2000/svg">
<path d="M9.5051 17.44C10.7801 17.15 11.9981 16.646 13.1051 15.95C13.9391 15.392 14.1631 14.264 13.6051 13.43C13.0691 12.628 12.0011 12.386 11.1701 12.877C8.6201 14.472 5.3801 14.472 2.8301 12.877C1.9831 12.343 0.865096 12.597 0.330096 13.442C0.330096 13.444 0.330096 13.446 0.328096 13.447C-0.205904 14.294 0.0480958 15.413 0.895096 15.947L0.897096 15.949C2.0021 16.644 3.2191 17.149 4.4931 17.437L1.0281 20.902C0.321096 21.597 0.308096 22.732 1.0001 23.439L1.0301 23.469C1.3741 23.823 1.8401 23.999 2.3041 23.999C2.7691 23.999 3.2341 23.823 3.5791 23.469L7.0001 20.065L10.4041 23.471C11.1241 24.166 12.2741 24.147 12.9701 23.426C13.6481 22.723 13.6481 21.608 12.9701 20.906L9.5051 17.44ZM7.0001 12.388C10.4201 12.384 13.1901 9.614 13.1951 6.195C13.1951 2.78 10.4151 0 7.0001 0C3.5851 0 0.805096 2.78 0.805096 6.197C0.810096 9.617 3.5811 12.387 7.0001 12.389V12.388ZM7.0001 3.631C8.4161 3.633 9.5631 4.781 9.5641 6.196C9.5641 7.612 8.4161 8.759 7.0001 8.761C5.5851 8.759 4.4381 7.613 4.4351 6.197C4.4371 4.78 5.5851 3.633 7.0001 3.63V3.631Z" fill="#AA0B0B"/>
</svg>
