<svg width="55" height="69" viewBox="0 0 55 69" fill="none" xmlns="http://www.w3.org/2000/svg">
<path d="M14.9222 45.5782C14.1667 45.5367 12.1392 45.5721 11.9109 45.5765C11.1882 45.5897 10.6079 46.1798 10.6079 46.9034V59.2703C10.6079 60.0037 11.2024 60.5972 11.9348 60.5972C12.6673 60.5972 13.2618 60.0037 13.2618 59.2703V54.4138H15.2132C16.9179 54.4138 19.4541 53.2859 19.4541 50.1765C19.4541 48.5532 18.8649 45.7976 14.9222 45.5782ZM15.2132 51.7599H13.2618V48.2144C13.8624 48.2091 14.4772 48.2117 14.7753 48.2285C16.1191 48.3029 16.8002 48.6249 16.8002 50.1774C16.8002 51.5229 15.7971 51.7467 15.2132 51.7599Z" fill="white" fill-opacity="0.5"/>
<path d="M43.3386 45.5587H38.0309C37.2984 45.5587 36.704 46.1523 36.704 46.8856V59.2703C36.704 60.0036 37.2984 60.5972 38.0309 60.5972C38.7634 60.5972 39.3578 60.0036 39.3578 59.2703V54.4049H42.8963C43.6287 54.4049 44.2232 53.8113 44.2232 53.0779C44.2232 52.3446 43.6287 51.751 42.8963 51.751H39.3578V48.2126H43.3386C44.0711 48.2126 44.6655 47.619 44.6655 46.8856C44.6655 46.1523 44.0711 45.5587 43.3386 45.5587Z" fill="white" fill-opacity="0.5"/>
<path d="M24.3195 45.5587C23.587 45.5587 22.9926 46.1523 22.9926 46.8856V59.2464C22.9926 59.9319 23.5154 60.5052 24.1983 60.568C24.2443 60.5724 24.5415 60.5972 25.0033 60.5972C26.4426 60.5972 29.4847 60.353 31.5503 58.467C32.9153 57.2215 33.6071 55.5266 33.6071 53.43C33.6079 46.9237 28.5568 45.5587 24.3195 45.5587ZM29.7687 56.5005C28.6072 57.5656 26.8256 57.8566 25.6464 57.9239V48.2541C28.4462 48.4523 30.9541 49.4528 30.9541 53.4291C30.9541 54.764 30.5666 55.7689 29.7687 56.5005Z" fill="white" fill-opacity="0.5"/>
<path d="M54.0133 16.7413L37.8602 0.394539C37.6108 0.142423 37.2711 0 36.9163 0H1.76174C1.02928 0 0.434814 0.593577 0.434814 1.32692V67.6731C0.434814 68.4064 1.02928 69 1.76174 69H53.0694C53.8019 69 54.3963 68.4064 54.3963 67.6731V17.6737C54.3963 17.3252 54.2592 16.9899 54.0133 16.7413ZM38.4733 4.79108L49.9113 16.3663H38.4733V4.79108ZM3.08866 66.347V2.65473H35.8194V17.6932C35.8194 18.4265 36.4139 19.0201 37.1463 19.0201H51.7425V66.347H3.08866Z" fill="white" fill-opacity="0.5"/>
</svg>
