<svg width="14" height="14" viewBox="0 0 14 14" fill="none" xmlns="http://www.w3.org/2000/svg">
<path d="M6.90919 0.723047C6.94515 0.646272 7.05434 0.646274 7.0903 0.723046L8.73984 4.24443C8.89552 4.57677 9.20668 4.80958 9.56944 4.86513L13.3075 5.43763C13.3879 5.44994 13.4208 5.54797 13.3641 5.60624L10.6203 8.42415C10.3771 8.67393 10.2667 9.02421 10.3227 9.3683L10.965 13.3133C10.9784 13.3957 10.8909 13.4573 10.8179 13.4169L7.53274 11.5972C7.20114 11.4135 6.79835 11.4135 6.46675 11.5972L3.18163 13.4169C3.10859 13.4573 3.02105 13.3957 3.03447 13.3133L3.67679 9.36829C3.73281 9.02421 3.62242 8.67395 3.37923 8.42417L0.635435 5.60603C0.5787 5.54775 0.611556 5.44973 0.691952 5.43742L4.43 4.86512C4.79278 4.80958 5.10397 4.57677 5.25965 4.24441L6.90919 0.723047Z" stroke="#82B145" stroke-linejoin="round"/>
</svg>
