<svg width="14" height="14" viewBox="0 0 14 14" fill="none" xmlns="http://www.w3.org/2000/svg">
<path d="M6.90919 0.723054C6.94515 0.64628 7.05434 0.646282 7.0903 0.723053L8.73984 4.24444C8.89552 4.57677 9.20668 4.80958 9.56944 4.86514L13.3075 5.43764C13.3879 5.44995 13.4208 5.54798 13.3641 5.60625L10.6203 8.42416C10.3771 8.67394 10.2667 9.02422 10.3227 9.36831L10.965 13.3133C10.9784 13.3957 10.8909 13.4573 10.8179 13.4169L7.53274 11.5972C7.20114 11.4136 6.79835 11.4136 6.46675 11.5972L3.18163 13.4169C3.10859 13.4573 3.02105 13.3957 3.03447 13.3133L3.67679 9.3683C3.73281 9.02422 3.62242 8.67395 3.37923 8.42418L0.635435 5.60603C0.5787 5.54776 0.611556 5.44973 0.691952 5.43743L4.43 4.86513C4.79278 4.80959 5.10397 4.57678 5.25965 4.24442L6.90919 0.723054Z" fill="#82B145" stroke="#82B145" stroke-linejoin="round"/>
</svg>
