<svg width="17" height="18" viewBox="0 0 17 18" fill="none" xmlns="http://www.w3.org/2000/svg">
<path fill-rule="evenodd" clip-rule="evenodd" d="M7.07691 12.6982C8.32705 12.6982 9.48184 12.2913 10.4162 11.6034L10.7401 11.3459C11.9467 10.3135 12.7116 8.78056 12.7116 7.06914C12.7116 3.96031 10.189 1.44011 7.07691 1.44011C3.96452 1.44011 1.44164 3.96031 1.44164 7.06914C1.44164 10.178 3.96452 12.6982 7.07691 12.6982ZM12.0807 12.0676L16.7889 16.7709C17.0704 17.052 17.0704 17.5081 16.7889 17.7892C16.5073 18.0703 16.051 18.0703 15.7695 17.7892L10.9567 12.9814C9.84252 13.7124 8.50957 14.1383 7.07691 14.1383C3.16851 14.1383 0 10.9731 0 7.06914C0 3.16488 3.16851 0 7.07691 0C10.985 0 14.1533 3.16488 14.1533 7.06914C14.1533 9.02113 13.3614 10.7883 12.0807 12.0676Z" fill="#474442"/>
</svg>
