<svg width="19" height="20" viewBox="0 0 19 20" fill="none" xmlns="http://www.w3.org/2000/svg">
<path d="M18.9596 14.7224C18.9058 14.5605 18.5639 14.3219 17.934 14.0073C17.7634 13.9081 17.5203 13.7734 17.2057 13.6024C16.8908 13.4315 16.6049 13.2739 16.3487 13.1299C16.092 12.986 15.8514 12.8466 15.6267 12.7118C15.5907 12.6848 15.4783 12.6062 15.2894 12.4755C15.1003 12.3451 14.9408 12.2484 14.8101 12.1853C14.6797 12.1225 14.5514 12.091 14.4254 12.091C14.2455 12.091 14.0208 12.2193 13.751 12.4755C13.4812 12.732 13.2337 13.0107 13.0089 13.3124C12.7841 13.6139 12.5456 13.8926 12.294 14.149C12.042 14.4055 11.8349 14.5337 11.6731 14.5337C11.5919 14.5337 11.4907 14.511 11.3694 14.4664C11.2481 14.4214 11.1558 14.3829 11.0925 14.3518C11.0297 14.3201 10.922 14.2573 10.7689 14.1626C10.6156 14.0681 10.5303 14.0163 10.5124 14.0073C9.27988 13.3234 8.22285 12.5407 7.34109 11.6593C6.45961 10.7774 5.67678 9.72045 4.99307 8.48783C4.98409 8.46982 4.93224 8.38431 4.83784 8.23145C4.74331 8.07845 4.6803 7.97064 4.64882 7.90749C4.61734 7.84458 4.57911 7.75231 4.5342 7.63088C4.4893 7.50945 4.46675 7.4083 4.46675 7.32724C4.46675 7.1654 4.59499 6.95837 4.85141 6.70644C5.10778 6.45465 5.38675 6.21614 5.68803 5.99139C5.98955 5.76664 6.26823 5.51915 6.5247 5.24935C6.78107 4.97941 6.90926 4.75461 6.90926 4.57471C6.90926 4.44884 6.87778 4.32051 6.81487 4.1901C6.75191 4.05941 6.6552 3.89993 6.5247 3.71091C6.39415 3.52199 6.31545 3.40963 6.28841 3.37347C6.15361 3.14872 6.01431 2.90809 5.8702 2.65166C5.72608 2.39529 5.56878 2.10951 5.39777 1.79467C5.2269 1.47997 5.09204 1.23697 4.99297 1.06605C4.67827 0.436414 4.43991 0.0943917 4.27792 0.0406021C4.21492 0.0136128 4.12038 0 3.99456 0C3.75151 0 3.43445 0.0449034 3.04313 0.134994C2.65166 0.224942 2.34363 0.319287 2.11868 0.418405C1.66885 0.607236 1.19207 1.156 0.688204 2.06452C0.229385 2.91002 0 3.74688 0 4.57447C0 4.81719 0.0157398 5.05333 0.0472195 5.28295C0.0786991 5.51234 0.134946 5.77103 0.216009 6.05898C0.29693 6.34683 0.362205 6.56067 0.411551 6.69992C0.460945 6.83926 0.553163 7.08887 0.688156 7.44886C0.822961 7.80875 0.904024 8.02906 0.931013 8.11003C1.24586 8.99174 1.61922 9.77887 2.051 10.4717C2.76142 11.6232 3.7309 12.8132 4.95889 14.0413C6.18693 15.2693 7.37673 16.2387 8.52834 16.9494C9.22103 17.3812 10.0084 17.7545 10.89 18.0696C10.971 18.0964 11.1913 18.1773 11.5511 18.3125C11.911 18.4474 12.1607 18.5397 12.3 18.5892C12.4394 18.6387 12.6533 18.704 12.9409 18.7851C13.2292 18.8661 13.4876 18.9224 13.717 18.9541C13.9465 18.9852 14.1827 19.0012 14.4255 19.0012C15.253 19.0012 16.0899 18.7717 16.9356 18.3129C17.844 17.8092 18.3926 17.3323 18.5815 16.8822C18.6809 16.6575 18.775 16.3493 18.865 15.9579C18.9552 15.5666 19 15.2496 19 15.0066C19.0003 14.8802 18.9867 14.7859 18.9596 14.7224Z" fill="#AA0B0B"/>
</svg>
