<svg width="40" height="13" viewBox="0 0 40 13" fill="none" xmlns="http://www.w3.org/2000/svg">
<path d="M20.687 4.13945C20.6642 5.94308 22.2906 6.94965 23.5157 7.54804C24.7745 8.1621 25.1973 8.55581 25.1925 9.10485C25.1829 9.94526 24.1883 10.3161 23.2575 10.3305C21.6335 10.3558 20.6894 9.89107 19.9387 9.5395L19.3538 12.2835C20.1069 12.6314 21.5014 12.9348 22.9476 12.9481C26.342 12.9481 28.5628 11.2685 28.5749 8.66417C28.5881 5.35913 24.0142 5.17612 24.0454 3.69878C24.0562 3.25089 24.4826 2.77289 25.4171 2.65128C25.8795 2.58988 27.1563 2.54292 28.6037 3.21115L29.1718 0.55628C28.3935 0.272131 27.3929 2.09808e-05 26.1474 2.09808e-05C22.9524 2.09808e-05 20.7051 1.70251 20.687 4.13945ZM34.631 0.228786C34.0112 0.228786 33.4887 0.591197 33.2557 1.14746L28.4067 12.753H31.7987L32.4737 10.8832H36.6188L37.0104 12.753H40L37.3911 0.228786H34.631ZM35.1054 3.61209L36.0843 8.31501H33.4034L35.1054 3.61209ZM16.5744 0.228786L13.9007 12.753H17.1329L19.8054 0.228786H16.5744ZM11.7927 0.228786L8.42832 8.75327L7.06744 1.50505C6.90769 0.695947 6.2771 0.228786 5.57684 0.228786H0.0768723L0 0.592401C1.12906 0.838021 2.41187 1.23415 3.189 1.65796C3.66464 1.91683 3.80037 2.14318 3.95652 2.75844L6.53414 12.753H9.95015L15.1871 0.228786H11.7927Z" fill="#253794"/>
</svg>
